<svg xmlns="http://www.w3.org/2000/svg" viewBox="0 0 48 48"><title>49-Education</title><g id="_49-Education" data-name="49-Education"><path d="M38,48H17a1,1,0,0,1-1-1V39c0-1.841-.857-1.989-1.028-2H9a3.888,3.888,0,0,1-4-4V29.749A3.581,3.581,0,0,0,3,29a2.916,2.916,0,0,1-3-3,1.006,1.006,0,0,1,.124-.483L5,16.681V14H7v2.938a1.013,1.013,0,0,1-.124.484l-4.855,8.8A.878.878,0,0,0,3,27a5.771,5.771,0,0,1,3.663,1.524A1,1,0,0,1,7,29.272V33a1.883,1.883,0,0,0,2,2h6c1.038,0,3,.836,3,4v7H37V40a1,1,0,0,1,1-1c2.892,0,3.856-3.513,4-4.11V31h2v4a1,1,0,0,1-.02.2c-.364,1.823-1.854,5.121-4.98,5.712V47A1,1,0,0,1,38,48Z"/><rect x="27" y="17" width="2" height="7"/><path d="M28,18a1,1,0,0,1-.388-.078l-19-8a1,1,0,0,1,0-1.844l19-8a1.013,1.013,0,0,1,.776,0l19,8a1,1,0,0,1,0,1.844l-19,8A1,1,0,0,1,28,18ZM11.577,9,28,15.915,44.423,9,28,2.085Z"/><path d="M28,34a.99.99,0,0,1-.419-.092l-13-6A1,1,0,0,1,14,27V11h2V26.36L28,31.9,40,26.36V11h2V27a1,1,0,0,1-.581.908l-13,6A.99.99,0,0,1,28,34Z"/><path d="M46,23H44a1,1,0,0,1-1-1V16a1,1,0,0,1,1-1h2V9h2V21a1,1,0,0,1-.293.707l-1,1A1,1,0,0,1,46,23Zm-1-2h.586L46,20.586V17H45Z"/><rect x="26" y="8" width="4" height="2"/></g></svg>